<svg xmlns="http://www.w3.org/2000/svg" width="540" height="48" viewBox="0 0 540 48">
  <defs>
    <style>
      .cls-1 {
        fill: #20242f;
        fill-rule: evenodd;
      }
    </style>
  </defs>
  <path id="GERRY_WEBER_BURLINGTON_copy" data-name="GERRY WEBER BURLINGTON copy" class="cls-1" d="M182.827,16.49V19.4a9.109,9.109,0,0,1-2.332,1.383,6.953,6.953,0,0,1-2.71.57,5.453,5.453,0,0,1-4.417-2.039q-1.686-2.039-1.686-6.117a8.5,8.5,0,0,1,1.664-5.7,5.626,5.626,0,0,1,4.483-1.922,4.674,4.674,0,0,1,4.795,3.641l4.272-.859a8.175,8.175,0,0,0-2.87-4.945,9.656,9.656,0,0,0-6.2-1.789,10.375,10.375,0,0,0-5.1,1.141,9.753,9.753,0,0,0-4.083,4.266,14,14,0,0,0-1.4,6.359,14.805,14.805,0,0,0,1.25,6.1,9.349,9.349,0,0,0,3.734,4.313,11.012,11.012,0,0,0,5.827,1.508,13.383,13.383,0,0,0,5.195-1.07,11.53,11.53,0,0,0,3.916-2.476V12.63H177.9V16.49h4.926Zm23.027,8.422V21.052h-11.9V14.818h10.695V10.959H193.953V5.88h11.494V2.005h-15.8V24.912h16.2Zm6.475,0V15.349H213.2a6.625,6.625,0,0,1,2.165.258,3.306,3.306,0,0,1,1.293.953,32.249,32.249,0,0,1,2.267,3.367l3.11,4.984h5.144l-2.6-4.469a26.21,26.21,0,0,0-2.449-3.719,10.171,10.171,0,0,0-2.3-1.922,6.591,6.591,0,0,0,4.214-2.117,6.4,6.4,0,0,0,1.41-4.258,6.985,6.985,0,0,0-.93-3.609,5,5,0,0,0-2.478-2.2,14.48,14.48,0,0,0-4.962-.617h-9.053V24.912h4.3Zm0-19.031h3.357q2.614,0,3.138.078a2.582,2.582,0,0,1,1.621.9,2.885,2.885,0,0,1,.573,1.867,3.157,3.157,0,0,1-.435,1.719,2.341,2.341,0,0,1-1.207.969,15.3,15.3,0,0,1-3.865.281h-3.182V5.88Zm20,19.031V15.349H233.2a6.628,6.628,0,0,1,2.166.258,3.306,3.306,0,0,1,1.293.953,32.417,32.417,0,0,1,2.267,3.367l3.109,4.984h5.144l-2.6-4.469a26.226,26.226,0,0,0-2.448-3.719,10.193,10.193,0,0,0-2.3-1.922,6.591,6.591,0,0,0,4.214-2.117,6.4,6.4,0,0,0,1.409-4.258,6.975,6.975,0,0,0-.93-3.609,5,5,0,0,0-2.477-2.2,14.482,14.482,0,0,0-4.963-.617h-9.053V24.912h4.3Zm0-19.031h3.356q2.616,0,3.139.078a2.582,2.582,0,0,1,1.62.9,2.88,2.88,0,0,1,.574,1.867,3.148,3.148,0,0,1-.436,1.719,2.335,2.335,0,0,1-1.206.969,15.31,15.31,0,0,1-3.865.281h-3.182V5.88ZM256.8,24.912V15.3l7.833-13.3h-4.956l-4.911,9.063L249.75,2.005h-5.043l7.8,13.266v9.641H256.8Zm22.41,0,4.229-17.125,4.243,17.125h4.563l5.173-22.906h-4.33l-3.27,16-3.734-16h-5.115L277.071,17.74,273.86,2.005h-4.4l5.086,22.906h4.664Zm35.117,0V21.052h-11.9V14.818h10.695V10.959H302.423V5.88h11.494V2.005h-15.8V24.912h16.2Zm2.173,0h7.252q4.111-.031,5.187-0.156a5.829,5.829,0,0,0,2.885-1.086,6.033,6.033,0,0,0,1.845-2.359,7.222,7.222,0,0,0,.676-3.039,5.8,5.8,0,0,0-1.046-3.453A5.6,5.6,0,0,0,330.3,12.74a5.12,5.12,0,0,0,2.187-2.016,5.628,5.628,0,0,0,.807-2.953,5.49,5.49,0,0,0-.654-2.68,5.742,5.742,0,0,0-1.635-1.914,5.328,5.328,0,0,0-2.223-.945,22.934,22.934,0,0,0-3.771-.227H316.5V24.912Zm6.772-19.094q3.037,0,3.676.078a2.4,2.4,0,0,1,1.621.8,2.636,2.636,0,0,1,.545,1.727,2.523,2.523,0,0,1-.632,1.789,2.759,2.759,0,0,1-1.737.82q-0.611.078-3.124,0.078H320.8v-5.3h2.47Zm1,9.109a13.621,13.621,0,0,1,3.814.328A2.649,2.649,0,0,1,329.43,16.3a3.154,3.154,0,0,1,.465,1.75,2.95,2.95,0,0,1-.6,1.945,2.618,2.618,0,0,1-1.562.914,18.1,18.1,0,0,1-2.95.141H320.8V14.927h3.473Zm28.417,9.984V21.052h-11.9V14.818h10.695V10.959H340.788V5.88h11.494V2.005H336.487V24.912h16.2Zm6.475,0V15.349h0.872a6.621,6.621,0,0,1,2.165.258,3.3,3.3,0,0,1,1.293.953,32.249,32.249,0,0,1,2.267,3.367l3.11,4.984h5.144l-2.6-4.469a26.121,26.121,0,0,0-2.449-3.719,10.171,10.171,0,0,0-2.3-1.922,6.586,6.586,0,0,0,4.214-2.117,6.4,6.4,0,0,0,1.41-4.258,6.975,6.975,0,0,0-.93-3.609,4.993,4.993,0,0,0-2.478-2.2,14.476,14.476,0,0,0-4.962-.617h-9.053V24.912h4.3Zm0-19.031h3.357q2.616,0,3.139.078a2.582,2.582,0,0,1,1.62.9,2.886,2.886,0,0,1,.574,1.867,3.157,3.157,0,0,1-.436,1.719,2.343,2.343,0,0,1-1.206.969,15.32,15.32,0,0,1-3.866.281h-3.182V5.88Zm-156.7,40.031H207.9q3.084-.023,3.891-0.117a4.37,4.37,0,0,0,2.163-.814,4.524,4.524,0,0,0,1.384-1.77,5.419,5.419,0,0,0,.507-2.279,4.342,4.342,0,0,0-.785-2.59,4.191,4.191,0,0,0-2.245-1.559,3.839,3.839,0,0,0,1.641-1.512,4.225,4.225,0,0,0,.6-2.215,4.117,4.117,0,0,0-.49-2.01,4.312,4.312,0,0,0-1.226-1.436,4,4,0,0,0-1.668-.709,17.174,17.174,0,0,0-2.828-.17h-6.386v17.18Zm5.078-14.32q2.278,0,2.758.059a1.8,1.8,0,0,1,1.215.6,1.979,1.979,0,0,1,.409,1.295,1.891,1.891,0,0,1-.474,1.342,2.068,2.068,0,0,1-1.3.615q-0.458.059-2.343,0.059h-2.114V31.591h1.852Zm0.752,6.832a10.217,10.217,0,0,1,2.861.246,1.983,1.983,0,0,1,1.008.785,2.361,2.361,0,0,1,.349,1.313,2.215,2.215,0,0,1-.452,1.459,1.965,1.965,0,0,1-1.172.685,13.578,13.578,0,0,1-2.212.105h-2.986V38.423h2.6Zm9.14-.527a22.373,22.373,0,0,0,.316,4.359,4.866,4.866,0,0,0,.905,1.9,4.994,4.994,0,0,0,1.869,1.477A8.288,8.288,0,0,0,224,46.2a7.665,7.665,0,0,0,3.073-.521,4.886,4.886,0,0,0,1.88-1.4,5,5,0,0,0,.965-2.156,24.95,24.95,0,0,0,.261-4.371V28.732H226.95v9.5a20.863,20.863,0,0,1-.141,2.918,2.423,2.423,0,0,1-.84,1.482,3.086,3.086,0,0,1-2.07.6,3.264,3.264,0,0,1-2.131-.639,2.812,2.812,0,0,1-.986-1.693,20.717,20.717,0,0,1-.12-2.871v-9.3h-3.226V37.9ZM235.7,45.912V38.74h0.654a4.965,4.965,0,0,1,1.624.193,2.473,2.473,0,0,1,.97.715,24.258,24.258,0,0,1,1.7,2.525l2.332,3.738h3.859l-1.951-3.352a19.608,19.608,0,0,0-1.837-2.789,7.642,7.642,0,0,0-1.727-1.441,4.939,4.939,0,0,0,3.16-1.588,4.8,4.8,0,0,0,1.058-3.193,5.232,5.232,0,0,0-.7-2.707,3.743,3.743,0,0,0-1.858-1.646,10.864,10.864,0,0,0-3.722-.463h-6.79v17.18H235.7Zm0-14.273h2.518q1.962,0,2.354.059a1.935,1.935,0,0,1,1.215.674,2.161,2.161,0,0,1,.431,1.4,2.364,2.364,0,0,1-.327,1.289,1.756,1.756,0,0,1-.905.727,11.483,11.483,0,0,1-2.9.211H235.7V31.638Zm23.1,14.273V43.017h-8.022V28.873H247.55V45.912H258.8Zm4.311,0V28.732h-3.226v17.18h3.226Zm4.987,0v-11.2l6.441,11.2h3.237V28.732h-3V40.2l-6.539-11.473H265.1v17.18h3ZM291.2,39.6v2.18a6.834,6.834,0,0,1-1.75,1.037,5.213,5.213,0,0,1-2.032.428A4.089,4.089,0,0,1,284.1,41.71a7.076,7.076,0,0,1-1.265-4.588,6.375,6.375,0,0,1,1.248-4.277,4.221,4.221,0,0,1,3.362-1.441,3.506,3.506,0,0,1,3.6,2.731l3.2-.645a6.134,6.134,0,0,0-2.152-3.709,7.245,7.245,0,0,0-4.649-1.342,7.783,7.783,0,0,0-3.825.855,7.311,7.311,0,0,0-3.062,3.2,10.49,10.49,0,0,0-1.047,4.77,11.113,11.113,0,0,0,.938,4.576,7,7,0,0,0,2.8,3.234,8.256,8.256,0,0,0,4.37,1.131,10.037,10.037,0,0,0,3.9-.8,8.656,8.656,0,0,0,2.937-1.857V36.7H287.5V39.6H291.2Zm11.94,6.316V31.638h4.73V28.732h-12.7v2.906h4.741V45.912h3.226Zm6.742-2.045a7.97,7.97,0,0,0,11.29-.012,9.411,9.411,0,0,0,2.1-6.51,9.446,9.446,0,0,0-2.12-6.551,7.23,7.23,0,0,0-5.651-2.355,8.238,8.238,0,0,0-3.444.68,6.234,6.234,0,0,0-2.065,1.547,8.171,8.171,0,0,0-1.488,2.355,11.672,11.672,0,0,0-.73,4.406A9.276,9.276,0,0,0,309.879,43.867Zm2.441-10.992a4.249,4.249,0,0,1,6.414-.018,6.8,6.8,0,0,1,1.2,4.406,6.911,6.911,0,0,1-1.237,4.482,4.108,4.108,0,0,1-6.348-.012A6.764,6.764,0,0,1,311.1,37.31,6.828,6.828,0,0,1,312.32,32.875ZM327.7,45.912v-11.2l6.441,11.2h3.237V28.732h-3V40.2l-6.539-11.473h-3.139v17.18h3Z"/>
</svg>
